<?xml version="1.0" standalone="no"?>
<!DOCTYPE svg PUBLIC "-//W3C//DTD SVG 20010904//EN"
 "http://www.w3.org/TR/2001/REC-SVG-20010904/DTD/svg10.dtd">
<svg version="1.0" xmlns="http://www.w3.org/2000/svg"
 width="1227.000000pt" height="1227.000000pt" viewBox="0 0 1227.000000 1227.000000"
 preserveAspectRatio="xMidYMid meet">
<metadata>
Created by potrace 1.14, written by Peter Selinger 2001-2017
</metadata>
<g transform="translate(0.000000,1227.000000) scale(0.100000,-0.100000)"
fill="#000000" stroke="none">
<path d="M8644 11702 c-11 -7 -2 -98 26 -270 22 -130 29 -369 15 -537 -4 -55
-8 -106 -8 -112 0 -7 -4 -13 -8 -13 -4 0 -6 -6 -6 -12 4 -35 -36 -190 -53
-213 -5 -5 -9 -14 -10 -20 -1 -5 -6 -21 -11 -33 -5 -13 -7 -28 -3 -33 3 -5 2
-9 -3 -9 -9 0 -45 -58 -49 -79 -1 -7 -12 -23 -23 -35 -12 -12 -21 -27 -21 -33
0 -6 -9 -13 -21 -16 -12 -3 -18 -10 -15 -15 6 -10 -148 -172 -164 -172 -5 0
-15 -6 -22 -13 -17 -16 -107 -73 -133 -84 -11 -5 -37 -19 -57 -31 -20 -13 -41
-24 -45 -24 -4 0 -26 -10 -48 -21 -22 -12 -42 -22 -45 -22 -3 -1 -30 -13 -60
-27 -30 -14 -69 -29 -87 -32 -17 -4 -37 -14 -44 -22 -6 -8 -20 -14 -30 -14
-10 0 -21 -4 -24 -10 -3 -5 -14 -10 -24 -10 -9 0 -27 -9 -39 -20 -12 -11 -26
-20 -32 -20 -6 0 -28 -11 -50 -25 -22 -14 -45 -25 -52 -25 -7 0 -31 -14 -52
-30 -21 -16 -43 -27 -47 -24 -5 3 -9 2 -9 -3 0 -4 -37 -30 -81 -58 -45 -27
-92 -60 -106 -72 -14 -13 -32 -23 -40 -23 -8 0 -11 -4 -8 -10 3 -5 1 -10 -5
-10 -6 0 -37 -19 -68 -42 -31 -24 -60 -42 -64 -41 -4 2 -15 -10 -24 -26 -9
-15 -34 -38 -55 -51 -21 -13 -43 -34 -50 -47 -7 -13 -17 -23 -22 -23 -6 0 -35
-26 -66 -57 -30 -32 -58 -57 -62 -56 -4 2 -11 -7 -15 -19 -3 -12 -19 -32 -35
-46 -16 -13 -29 -28 -29 -34 0 -5 -6 -16 -12 -23 -14 -15 -45 -52 -84 -100
-13 -16 -24 -33 -24 -38 0 -8 -51 -89 -61 -97 -4 -3 -25 -41 -48 -85 -23 -44
-46 -85 -51 -92 -6 -7 -10 -14 -10 -17 0 -3 -5 -17 -11 -33 -6 -15 -10 -29
-10 -31 1 -1 -6 -16 -15 -33 -19 -37 -44 -117 -44 -141 0 -20 6 -26 109 -118
80 -70 88 -78 152 -130 23 -19 56 -50 73 -68 17 -18 63 -66 101 -105 39 -40
81 -88 95 -106 13 -18 35 -44 47 -57 13 -14 23 -30 23 -36 0 -6 10 -20 23 -32
13 -11 39 -46 58 -76 19 -30 40 -64 47 -75 7 -11 18 -32 25 -47 6 -16 15 -28
19 -28 4 0 8 -5 8 -11 0 -36 60 -44 102 -15 12 9 28 16 35 16 6 0 24 5 40 12
15 6 33 12 38 14 6 1 37 10 70 19 33 8 77 22 98 30 20 8 47 15 58 15 11 0 27
7 35 15 9 8 24 15 35 15 11 0 28 4 38 10 10 5 29 11 42 14 13 2 46 14 72 26
47 21 58 41 24 46 -22 3 -105 56 -134 85 -12 13 -19 27 -16 32 3 6 1 7 -5 3
-11 -7 -82 73 -82 93 0 6 -4 11 -8 11 -20 0 -83 158 -95 240 -11 78 -10 106 6
246 3 22 14 61 26 87 11 25 21 50 21 54 0 12 57 93 78 112 10 9 27 31 37 49
11 17 24 32 30 32 5 0 21 12 34 26 20 21 74 56 91 59 3 1 28 13 57 28 28 15
67 29 86 31 19 2 43 8 54 14 45 23 307 -4 346 -36 7 -6 29 -13 49 -17 20 -4
44 -16 54 -26 9 -10 21 -19 26 -19 5 0 26 -17 48 -39 21 -21 46 -41 55 -44 8
-4 15 -11 15 -17 0 -5 15 -26 34 -46 l34 -36 36 39 c20 21 55 76 79 123 40 82
42 89 44 185 1 112 -26 249 -55 281 -21 22 -21 72 -1 85 8 4 14 13 14 18 0 5
8 18 18 28 28 29 97 120 97 128 0 5 11 22 24 39 13 17 26 41 30 53 4 11 13 24
21 27 8 3 15 12 15 21 0 17 48 117 60 125 4 3 11 20 15 38 3 17 10 32 14 32 4
0 8 6 8 13 0 10 12 39 63 152 5 11 11 34 14 52 2 17 7 37 11 43 3 6 8 23 10
38 5 31 9 48 24 112 27 108 27 443 1 475 -8 10 -16 44 -25 105 -2 14 -17 66
-35 115 -17 50 -32 95 -34 100 -1 6 -13 31 -25 57 -12 26 -24 53 -25 61 -1 8
-9 25 -17 38 -27 41 -60 109 -53 109 4 0 -1 9 -11 20 -10 11 -23 29 -29 39
-45 79 -78 131 -91 141 -8 7 -15 18 -15 25 0 7 -7 18 -16 26 -8 7 -24 29 -34
48 -10 20 -30 49 -44 65 -24 27 -30 40 -27 59 1 9 -1 9 -15 -1z"/>
<path d="M5260 10716 c-3 -2 -36 -6 -75 -9 -67 -4 -170 -30 -265 -65 -25 -9
-47 -17 -50 -17 -10 -1 -126 -63 -172 -92 -74 -47 -117 -83 -194 -160 -63 -64
-182 -220 -189 -248 -1 -5 -8 -23 -14 -40 -19 -45 -58 -149 -60 -157 0 -5 -1
-9 -2 -10 -1 -3 -4 -23 -14 -83 -4 -22 -8 -262 -9 -532 -2 -469 -2 -493 16
-499 10 -3 18 -9 18 -14 0 -5 23 -23 50 -41 28 -18 50 -36 50 -40 0 -6 28 -17
42 -15 4 1 13 -7 20 -16 7 -9 40 -31 73 -48 33 -17 66 -37 74 -43 8 -7 15 -11
15 -9 1 2 14 -1 29 -7 16 -6 32 -11 36 -11 3 0 7 267 7 593 0 470 3 603 14
647 8 30 14 57 15 60 1 15 70 140 77 140 4 0 8 6 8 13 0 20 176 175 186 164 4
-3 14 2 24 11 27 25 123 59 221 80 79 16 158 17 925 16 750 -1 846 -3 904 -18
36 -9 74 -19 85 -21 11 -3 29 -9 40 -14 142 -65 150 -70 239 -158 l52 -51 45
20 c24 12 47 20 52 20 4 -1 7 2 7 8 0 6 3 9 8 8 4 0 23 6 42 14 35 15 59 24
72 27 4 1 34 15 67 31 33 17 65 30 71 30 18 0 37 23 29 35 -5 5 -20 25 -35 43
-14 17 -23 32 -19 32 9 0 -150 154 -197 192 -21 16 -38 27 -38 23 0 -3 -10 4
-22 16 -13 11 -43 30 -68 42 -25 11 -48 25 -51 30 -6 8 -124 55 -154 61 -5 1
-16 5 -22 9 -7 5 -13 5 -13 1 0 -3 -6 -1 -14 5 -8 7 -30 13 -49 15 -19 2 -40
6 -45 10 -6 3 -25 9 -44 12 -38 8 -1791 17 -1798 10z"/>
<path d="M5342 9185 c-39 -79 -72 -147 -72 -151 0 -3 -7 -20 -15 -37 -8 -18
-23 -54 -34 -82 -11 -27 -27 -68 -37 -90 -10 -22 -19 -44 -20 -50 -2 -5 -21
-64 -44 -130 -37 -106 -74 -220 -85 -265 -2 -8 -15 -58 -29 -110 -14 -52 -27
-106 -30 -120 -3 -14 -14 -68 -25 -120 -11 -52 -22 -115 -26 -140 -3 -25 -8
-56 -10 -70 -51 -279 -51 -767 -1 -1027 3 -12 8 -42 12 -68 5 -34 12 -49 25
-52 10 -3 16 -10 12 -16 -3 -5 -1 -7 4 -4 12 7 176 -66 168 -75 -3 -2 1 -5 8
-5 8 0 54 -23 103 -52 115 -67 119 -69 181 -113 29 -21 55 -38 57 -38 3 0 14
-6 23 -14 10 -8 52 -42 93 -75 l75 -60 25 28 c14 16 43 55 65 86 22 32 48 67
57 79 10 11 21 26 25 31 43 55 80 101 97 122 45 54 314 322 371 370 95 78 194
153 204 153 5 0 11 4 13 8 4 12 125 92 137 92 6 0 11 3 11 8 0 7 15 16 76 46
39 19 58 42 48 58 -44 73 -148 227 -193 283 -73 92 -241 260 -371 371 -110 94
-216 197 -290 284 -49 57 -191 247 -229 307 -68 108 -212 417 -225 482 -1 9
-12 48 -24 86 -11 39 -24 86 -27 105 -3 19 -8 44 -10 55 -2 11 -4 28 -4 38 -2
37 -19 12 -89 -128z"/>
<path d="M3560 9052 c0 -5 -7 -59 -15 -121 -8 -62 -17 -147 -21 -189 -3 -43
-8 -90 -11 -107 -9 -57 -11 -700 -3 -785 5 -47 12 -114 15 -150 6 -69 10 -99
27 -198 10 -61 12 -64 72 -110 33 -25 66 -51 72 -57 6 -5 37 -28 69 -50 31
-22 66 -48 76 -57 11 -10 21 -18 24 -18 3 0 46 -27 96 -60 50 -33 92 -60 94
-60 1 0 34 -19 71 -42 95 -57 439 -228 460 -228 4 0 4 33 0 73 -29 318 -26
627 9 877 3 19 8 53 11 75 3 22 8 56 11 75 2 19 15 91 29 159 14 68 24 124 22
126 -2 1 -33 14 -70 29 -157 62 -336 157 -458 245 -25 17 -56 39 -70 49 -14 9
-32 23 -40 32 -8 8 -31 27 -50 41 -60 45 -230 221 -289 299 -31 41 -58 77 -61
80 -4 3 -16 22 -29 43 -21 34 -41 48 -41 29z"/>
<path d="M9647 8368 c-30 -46 -180 -188 -265 -253 -7 -5 -21 -17 -30 -25 -10
-8 -33 -26 -52 -40 -19 -13 -37 -27 -40 -30 -3 -4 -24 -17 -47 -30 -24 -13
-43 -27 -43 -32 0 -4 -4 -8 -10 -8 -5 0 -47 -24 -93 -54 -140 -91 -410 -234
-577 -306 -41 -18 -97 -43 -125 -55 -135 -63 -520 -206 -755 -280 -303 -96
-372 -120 -465 -160 -96 -42 -206 -97 -270 -137 -16 -10 -37 -21 -45 -25 -8
-3 -17 -9 -20 -12 -11 -13 -101 -71 -110 -71 -6 0 -10 -4 -10 -8 0 -4 -12 -15
-27 -24 -16 -9 -39 -26 -53 -38 -14 -12 -41 -34 -60 -49 -80 -61 -265 -240
-356 -347 -111 -129 -274 -356 -274 -380 0 -7 13 -25 28 -41 77 -77 211 -256
303 -403 59 -95 199 -367 199 -387 0 -7 10 -13 23 -13 21 0 273 56 515 115
l113 28 -61 33 c-146 78 -248 191 -310 346 -36 91 -45 148 -44 265 4 272 191
522 458 610 69 23 98 27 201 27 88 0 136 -5 180 -18 298 -90 490 -345 487
-646 -2 -110 -19 -186 -67 -288 -19 -40 -35 -77 -35 -82 0 -5 15 -3 33 5 17 8
87 34 153 59 67 24 141 53 165 64 24 11 73 32 109 47 213 89 265 129 441 340
418 500 690 1072 808 1695 26 136 33 185 47 315 2 17 6 94 10 173 7 146 2 166
-29 120z"/>
<path d="M1995 7599 c-22 -4 -51 -10 -65 -13 -14 -3 -34 -8 -45 -10 -11 -2
-33 -9 -50 -16 -16 -6 -31 -11 -33 -10 -1 0 -28 -11 -60 -26 -76 -35 -170 -92
-207 -126 -16 -15 -36 -28 -43 -28 -6 0 -11 -6 -10 -12 2 -7 -2 -12 -9 -11 -6
2 -14 -6 -18 -16 -3 -10 -17 -24 -30 -31 -14 -7 -25 -16 -25 -20 0 -4 -11 -20
-25 -36 -14 -16 -38 -47 -53 -69 -15 -22 -32 -46 -39 -53 -6 -6 -15 -21 -18
-32 -3 -11 -10 -20 -14 -20 -4 0 -7 -10 -8 -22 -1 -11 -6 -24 -10 -27 -11 -9
-45 -71 -38 -71 3 0 -2 -11 -11 -25 -9 -14 -13 -25 -9 -25 4 0 3 -6 -3 -13 -6
-7 -13 -27 -17 -44 -3 -18 -10 -45 -16 -60 -6 -15 -13 -46 -14 -68 -2 -22 -5
-40 -5 -40 -1 0 -3 -13 -4 -30 -1 -16 -4 -34 -8 -40 -8 -13 -3 -1768 5 -1815
4 -19 9 -46 12 -60 3 -14 7 -37 10 -52 5 -25 45 -141 68 -198 6 -14 10 -28 9
-32 -1 -5 3 -8 9 -8 5 0 7 -5 4 -10 -3 -6 1 -13 9 -16 9 -3 13 -10 10 -15 -3
-5 0 -9 5 -9 6 0 10 -3 9 -7 -2 -10 52 -101 75 -125 9 -10 17 -22 17 -28 0 -5
5 -10 10 -10 6 0 16 -11 22 -25 6 -13 20 -27 30 -31 11 -3 17 -8 14 -11 -6 -6
8 -20 77 -76 22 -18 49 -40 60 -50 21 -18 134 -87 142 -87 3 0 30 -12 62 -26
31 -15 64 -28 72 -29 9 -2 17 -4 19 -5 1 -2 5 -3 10 -4 91 -22 110 -26 177
-32 90 -8 1398 -8 1423 0 12 4 21 10 20 14 -3 8 112 131 196 211 33 31 82 77
109 104 27 26 55 47 63 47 7 0 16 9 19 20 3 11 11 20 17 20 6 0 8 3 5 7 -4 3
-424 7 -934 8 -701 1 -937 5 -963 14 -19 7 -43 14 -54 16 -10 2 -39 18 -65 35
-26 16 -52 30 -56 30 -26 0 -209 217 -210 250 0 3 -11 27 -24 53 -13 26 -21
51 -17 54 3 3 0 15 -6 27 -13 24 -14 28 -24 111 -7 63 -8 1709 -1 1735 2 8 7
33 12 55 4 22 11 45 15 50 4 6 6 18 5 28 -2 9 1 17 6 17 6 0 7 5 4 10 -3 6 -1
10 4 10 6 0 10 3 9 8 -4 14 14 52 24 52 6 0 8 3 5 7 -8 7 29 71 55 94 10 9 18
20 18 24 0 10 50 68 50 58 0 -4 8 1 18 13 9 11 35 34 57 50 22 16 43 33 47 39
4 5 8 6 8 2 0 -4 10 -2 23 5 12 7 25 11 30 10 4 -1 7 2 7 6 0 5 6 9 13 9 6 0
39 7 72 14 44 10 140 14 361 13 l301 0 -3 25 c-7 58 -15 141 -20 231 -6 102
-11 161 -13 171 -1 9 -605 6 -656 -2z"/>
<path d="M9910 7590 c0 -10 -4 -21 -9 -25 -6 -3 -9 -13 -9 -23 1 -26 -11 -82
-23 -103 -5 -11 -7 -19 -5 -19 3 0 -1 -18 -9 -40 -8 -22 -15 -44 -16 -48 -2
-10 -6 -22 -20 -67 -8 -22 -14 -47 -15 -56 -1 -9 -4 -20 -7 -25 -3 -6 59 -9
151 -9 152 0 262 -11 292 -30 8 -5 23 -11 33 -12 58 -9 237 -167 271 -237 9
-20 22 -36 28 -36 5 0 8 -7 4 -15 -3 -8 -2 -15 2 -15 16 0 70 -167 79 -240 7
-62 8 -1633 1 -1700 -9 -82 -28 -167 -44 -200 -28 -56 -48 -105 -46 -112 1 -5
-2 -8 -8 -8 -5 0 -10 -4 -10 -10 0 -11 -12 -27 -79 -104 -25 -28 -46 -50 -48
-48 -2 1 -11 -5 -20 -14 -23 -20 -95 -66 -108 -69 -5 -1 -21 -7 -35 -13 -41
-17 -64 -25 -90 -29 -14 -3 -296 -6 -627 -7 -567 -3 -602 -4 -620 -21 -10 -10
-17 -19 -15 -19 10 -2 -20 -56 -35 -65 -10 -6 -15 -11 -11 -11 7 0 -58 -109
-82 -137 -5 -7 -10 -16 -10 -21 0 -5 -11 -19 -25 -32 -13 -12 -22 -27 -19 -31
3 -5 0 -9 -6 -9 -6 0 -14 -8 -17 -17 -4 -10 -17 -29 -30 -43 -12 -13 -20 -26
-18 -28 6 -7 1445 -4 1500 2 72 9 106 14 135 21 14 3 30 7 35 8 6 2 15 6 21 9
6 4 22 9 36 12 14 2 34 9 44 15 11 5 45 22 76 36 31 14 58 30 60 35 2 5 10 10
18 12 8 2 26 13 40 26 14 12 33 25 43 28 9 3 17 10 17 15 0 6 5 7 10 4 6 -3
10 1 10 9 0 9 4 16 8 16 14 0 99 86 128 129 14 23 31 41 35 41 5 0 9 5 9 11 0
6 6 17 13 24 30 34 35 43 30 49 -4 3 -1 6 6 6 7 0 10 4 7 9 -4 5 -1 11 4 13 6
2 12 10 13 19 2 9 10 27 18 40 8 13 21 40 29 59 7 19 17 40 21 45 4 6 11 26
14 45 3 18 9 38 13 44 4 6 7 13 7 16 1 3 4 19 8 35 7 32 15 77 24 135 8 46 7
1796 0 1835 -3 17 -8 44 -11 60 -9 46 -13 65 -31 125 -8 30 -17 60 -18 65 -2
6 -15 36 -30 69 -15 32 -27 62 -27 66 0 4 -7 13 -15 20 -9 7 -14 19 -11 27 3
7 2 13 -3 13 -7 0 -31 33 -83 115 -16 24 -188 199 -188 190 0 -6 -13 4 -48 35
-10 8 -34 24 -55 35 -20 11 -37 23 -37 27 0 5 -4 8 -9 8 -5 0 -31 10 -58 22
-26 12 -50 22 -53 23 -3 1 -13 5 -22 8 -59 22 -58 22 -103 31 -16 3 -41 8 -55
12 -14 3 -91 7 -172 9 -140 4 -148 3 -148 -15z"/>
<path d="M2975 7505 c6 -83 15 -193 21 -255 5 -54 43 -335 50 -370 2 -14 9
-56 15 -95 33 -213 136 -609 218 -840 43 -124 67 -184 121 -315 21 -48 153
-313 193 -385 42 -75 199 -313 227 -342 11 -12 20 -25 20 -29 0 -3 9 -16 19
-28 11 -11 48 -55 82 -96 35 -41 107 -119 161 -173 l98 -97 28 15 c15 9 41 24
57 35 68 43 233 130 249 130 9 0 16 4 16 8 0 7 34 25 155 77 111 49 355 135
423 150 9 2 51 13 92 24 73 19 295 64 375 75 22 3 67 10 100 16 33 6 85 15
115 20 30 4 66 11 80 14 14 3 41 8 60 11 19 3 51 8 71 11 20 3 57 11 83 17
l47 12 -42 85 c-35 71 -77 146 -134 242 -39 64 -156 225 -210 288 -91 105
-271 275 -364 343 -31 23 -65 49 -75 59 -11 10 -25 18 -32 18 -6 0 -17 6 -23
14 -10 12 -83 58 -176 112 -54 32 -264 134 -274 134 -6 0 -11 5 -11 10 0 6 -3
9 -7 8 -5 -2 -33 7 -63 19 -30 12 -98 38 -150 59 -249 97 -473 206 -668 326
-34 21 -65 38 -68 38 -2 0 -10 5 -17 10 -7 6 -34 26 -62 43 -69 45 -247 168
-262 181 -7 6 -18 16 -25 21 -192 153 -279 231 -430 382 l-88 87 5 -69z"/>
<path d="M9036 5745 c-8 -8 -19 -15 -24 -15 -6 0 -12 -4 -14 -8 -3 -8 -95 -72
-104 -72 -2 0 -23 -12 -47 -27 -58 -36 -346 -180 -377 -188 -3 0 -27 -11 -55
-24 -75 -34 -423 -163 -565 -209 -384 -124 -771 -226 -1200 -317 -91 -20 -184
-40 -208 -45 -116 -27 -469 -91 -827 -150 -203 -33 -482 -99 -550 -130 -11 -5
-42 -16 -70 -25 -259 -84 -591 -267 -845 -464 -184 -144 -390 -350 -530 -531
-19 -25 -37 -47 -40 -50 -32 -28 -209 -302 -292 -450 -189 -339 -351 -755
-443 -1140 -13 -55 -64 -314 -70 -355 l-7 -50 43 50 c322 376 749 640 1298
801 221 65 604 139 826 159 39 4 81 8 95 10 14 2 57 6 95 10 39 3 86 8 105 10
19 3 82 9 140 15 58 7 106 13 108 15 2 1 -28 23 -65 48 -439 293 -557 871
-268 1322 44 69 127 157 207 221 37 30 70 54 73 54 4 0 20 10 37 21 96 69 319
129 476 129 358 0 694 -207 857 -529 98 -194 124 -439 70 -656 -20 -78 -78
-221 -101 -246 -8 -8 -11 -19 -7 -22 3 -4 2 -7 -4 -7 -5 0 -15 -12 -22 -26
-10 -24 -10 -26 6 -19 10 4 54 20 98 36 44 17 103 41 132 55 28 13 54 24 57
24 3 0 63 28 133 62 539 263 973 618 1295 1058 58 79 184 274 210 325 209 408
307 686 367 1045 20 119 37 300 28 300 -3 0 -12 -7 -21 -15z"/>
<path d="M7960 3160 c0 -4 -13 -13 -30 -20 -16 -7 -30 -16 -30 -20 0 -4 -27
-25 -60 -46 -33 -22 -60 -42 -60 -46 0 -5 -4 -8 -9 -8 -9 0 -104 -59 -126 -78
-6 -5 -24 -12 -40 -16 -16 -4 -34 -15 -41 -24 -10 -13 -13 -149 -14 -611 0
-490 -3 -604 -15 -651 -20 -77 -41 -126 -78 -180 -34 -49 -143 -160 -157 -160
-5 0 -15 -6 -22 -14 -13 -12 -95 -59 -108 -61 -3 0 -28 -9 -55 -18 -122 -42
-155 -43 -1025 -42 -459 1 -855 5 -880 9 -57 9 -169 45 -195 62 -11 8 -25 14
-33 14 -17 0 -118 74 -162 119 -54 56 -90 100 -90 110 0 5 -7 14 -15 21 -9 7
-13 15 -11 17 3 3 -4 21 -15 40 -11 19 -20 45 -21 59 -1 13 -5 24 -8 24 -9 0
-9 19 -12 274 -2 142 -7 231 -13 233 -5 1 -55 -6 -110 -17 -55 -11 -112 -23
-127 -26 -15 -3 -58 -14 -95 -24 -37 -10 -70 -17 -74 -14 -13 8 -16 -34 -17
-192 0 -202 22 -354 68 -459 61 -140 104 -211 185 -303 65 -75 239 -216 267
-217 4 0 16 -7 27 -16 10 -10 29 -20 42 -24 13 -4 40 -16 59 -26 19 -11 42
-19 50 -19 9 0 21 -5 28 -12 7 -7 12 -8 12 -4 0 5 6 4 13 -1 13 -12 110 -36
202 -51 53 -9 1830 -9 1875 0 78 15 97 19 135 30 22 7 43 12 48 14 4 1 8 2 10
3 1 2 12 4 25 7 13 2 37 12 55 21 18 9 34 18 37 18 20 4 110 49 110 55 0 4 10
10 23 14 12 3 32 15 45 26 12 11 22 18 22 14 0 -3 9 4 20 17 10 13 19 21 20
17 0 -3 24 16 53 43 28 27 55 49 60 49 4 0 7 8 7 17 0 9 3 13 6 10 4 -3 20 12
35 33 16 22 34 40 41 40 6 0 9 3 5 6 -3 4 12 33 34 65 57 84 123 245 133 323
2 19 8 41 12 48 5 7 9 360 9 784 1 627 -1 771 -12 771 -7 0 -13 -4 -13 -7z"/>
</g>
</svg>
